# xmcd
#
# Track frame offsets:
#	150
#	102593
#	285454
#
# Disc length: 4362 seconds
#
# Revision: 1
# Processed by: cddbd v1.5.2PL0 Copyright (c) Steve Scherf et al.
# Submitted via: audiograbber 1.83.01
#
DISCID=24110803
DTITLE=Wilhelm Busch - Jesus unser Schicksal  ( CD2 )
DYEAR=2008
DGENRE=Audiobook
TTITLE0=Was sollen wir denn tun ?  ( Teil 2 )
TTITLE1=Warum schweigt Gott ?
TTITLE2=Kann man mit Gott reden ? ( Neuaufnahme )
EXTD=YEAR: 2008
EXTT0=
EXTT1=
EXTT2=
PLAYORDER=
